<?xml version="1.0" encoding="UTF-8"?><svg id="Layer_1" xmlns="http://www.w3.org/2000/svg" viewBox="0 0 165 106"><defs><style>.cls-1{fill:#313131;}</style></defs><path class="cls-1" d="M81.98,106c-.17-.98,.71-1.9,1.95-1.96,1.07-.05,2.15,.03,3.23-.01,2.48-.09,4.96-.22,7.44-.33,.33-.02,.68-.15,.99-.08,2.86,.59,5.65-.29,8.48-.32,1.04-.01,2.09,.12,3.14,.11,1.6-.01,3.2,0,4.79-.16,2.8-.28,5.58-.69,8.37-1.04,.68-.09,1.38-.1,2.06-.23,.91-.17,1.82-.4,2.72-.61,.48-.11,.95-.29,1.44-.36,.98-.15,1.91-.31,2.81-.84,.88-.52,1.98-.63,2.93-1.04,3.3-1.43,6.12-3.5,8.06-6.59,.62-.99,1.05-2.11,1.48-3.21,.11-.27-.15-.68-.25-1.03-.29,.09-.63,.13-.88,.29-.86,.6-1.67,1.27-2.53,1.86-1.77,1.22-3.37,1.18-5.11-.1-.47-.35-.84-.27-1.22,.15-.75,.81-1.48,.99-2.28,.62-.68-.32-1.09-1.2-1.03-2.18,.07-1.35,.14-2.69,.19-4.04,.08-1.96-.5-3.82-.98-5.68-.08-.31-.23-.63-.42-.89-.6-.83-1.42-.93-1.97-.1-.9,1.38-1.73,2.82-2.42,4.31-.83,1.79-1.05,3.75-1.15,5.72-.03,.52-.31,1.05-.57,1.52-.34,.61-.92,.88-1.62,.73-.69-.15-.89-.72-.89-1.33,0-2.2,.04-4.41,.07-6.61,.02-1.68,.01-3.37,.12-5.05,.04-.64,.26-1.3,.55-1.88,.45-.87,1.37-.93,2.05-.21,.13,.14,.25,.29,.37,.44,.38,.5,.7,.46,1.13-.01,.51-.57,1.06-1.14,1.69-1.55,.97-.63,1.99-.58,2.93,.15,1.93,1.49,2.97,3.5,3.38,5.87,.12,.71,.18,1.42,.31,2.13,.12,.65,.52,.69,.93,.29,.27-.26,.5-.6,.62-.95,1.04-2.92,2.83-5.34,4.96-7.53,.94-.97,2.06-1.65,3.53-1.42,.89,.14,1.33,.68,.95,1.49-.29,.62-.77,1.23-1.33,1.62-2.34,1.63-4.21,3.64-5.23,6.33-.48,1.28-.83,2.62-1.19,3.94-.1,.36-.12,.77-.06,1.15,.13,.94,.77,1.29,1.61,.87,2.21-1.13,4.25-2.49,5.53-4.68,.3-.52,.47-1.2,.47-1.81,0-2.95,.88-5.71,1.79-8.46,.1-.32,.61-.68,.96-.71,1.05-.11,2.5,1.34,2.39,2.39-.09,.81-.37,1.59-.59,2.38-.14,.5-.42,.98-.48,1.49-.25,2.05-.52,4.11-.63,6.17-.22,3.75-.91,7.34-3.26,10.4-.95,1.24-1.86,2.56-3.01,3.59-1.28,1.15-2.72,2.18-4.25,2.95-3.18,1.61-6.65,2.43-10.14,3.12-.84,.17-1.71,.15-2.54,.32-.39,.08-.73,.39-1.09,.6h-39.25Z"/><path class="cls-1" d="M80.69,84.73c2.04,.27,4.08,.55,6.13,.8,.54,.06,1.11,.09,1.64,0,1.46-.26,2.73,.26,3.89,.98,.55,.34,.96,.98,1.32,1.56,.49,.79,.13,1.67-.78,1.88-.6,.14-1.27,.17-1.88,.09-3.5-.44-7.01-.81-10.44-1.69-1.66-.43-3.43-.48-5.15-.66-.93-.1-1.87-.11-2.81-.15-1-.05-1.47,.45-1.11,1.37,.44,1.11,.33,2.4,1.24,3.37,.47,.5,.08,1.26-.64,1.59-1.17,.53-2.56-.05-2.97-1.42-.46-1.55-.7-3.16-1.09-4.74-.15-.59-.36-1.19-.66-1.72-.48-.85-.89-1.78-.43-2.66,.75-1.45,.59-2.93,.55-4.44-.06-2.45-.1-4.91-.06-7.36,0-.5,.33-1.03,.63-1.47,.34-.49,.27-.76-.21-1.06-.46-.29-.91-.62-1.32-.98-1.17-1.07-1.39-2.11-.6-3.47,.21-.36,.86-.71,1.26-.66,1.11,.14,2.23,.38,3.27,.78,1.45,.55,2.07,.34,2.47-1.12,1.23-4.46,2.45-8.92,3.68-13.38,.72-2.6,1.42-5.21,2.22-7.78,.76-2.41,1.68-4.78,2.47-7.18,.54-1.64,.96-3.32,1.48-4.98,.81-2.6,1.61-5.21,2.5-7.78,.39-1.13,1.06-1.36,1.89-.91,.69,.38,.86,.94,.56,1.68-.83,2.07-1.65,4.14-2.47,6.21-.07,.18-.2,.41-.14,.55,.15,.34,.33,.76,.62,.93,.43,.25,.79-.04,.96-.49,.2-.54,.36-1.1,.55-1.65,.18-.53,.56-.83,1.13-.76,.64,.08,.81,.6,.76,1.1-.05,.53-.22,1.07-.47,1.55-.29,.58-.28,1.04,.33,1.3,1.01,.43,2.04,.84,3.09,1.16,.24,.07,.73-.16,.87-.39,.32-.53,.54-1.14,.72-1.75,.59-2.04,1.13-4.09,1.73-6.12,.32-1.06,.83-1.35,1.59-1.04,.78,.31,1.12,1.24,.76,2.09-.26,.61-.55,1.2-.78,1.82-.62,1.71-1.21,3.43-1.82,5.14-.26,.73-.11,1.28,.65,1.53,1.8,.61,3.61,1.19,5.44,1.69,.85,.24,1.2-.12,1.46-1.02,.75-2.62,1.54-5.23,2.31-7.85,.26-.9,.5-1.8,.78-2.7,.13-.42,.29-.84,.51-1.21,.51-.9,1.25-1.12,2.08-.68,.74,.39,.96,1.29,.53,2.16-.71,1.43-1.48,2.83-2.09,4.3-.67,1.59-1.18,3.25-1.77,4.88-.18,.49-.34,.99-.55,1.47-.39,.89-.35,1.04,.5,1.47,.12,.06,.32,.1,.35,.19,.15,.39,.4,.84,.31,1.19-.07,.26-.58,.56-.91,.59-1.44,.11-1.39,.09-1.85,1.49-.81,2.48-1.7,4.94-2.55,7.41-.75,2.19-1.49,4.38-2.26,6.56-.55,1.56-1.17,3.09-1.72,4.65-.28,.78-.45,1.59-.73,2.37-.96,2.73-1.97,5.43-2.91,8.17-.51,1.47-.35,1.76,.98,2.49,1.39,.76,1.57,1.66,.6,2.93-.22,.28-.4,.59-.63,.87-.6,.74-1.13,.76-2.04,.5-1.9-.54-3.82-1.09-5.76-1.41-1.8-.3-3.42-.98-5.06-1.7-1.81-.79-3.7-1.42-5.57-2.07-.99-.34-2.01-.57-3.02-.87-1.29-.39-1.74-.12-1.78,1.23-.06,2.09-.09,4.19-.07,6.28,.01,1.46,.6,1.78,1.89,1.06,2.35-1.31,4.68-2.67,7.04-3.99,.83-.47,2.54-.06,3.12,.7,.35,.46,.18,1.11-.43,1.35-2.78,1.1-5.07,2.96-7.45,4.69-.73,.53-1.57,.91-2.33,1.42-.26,.18-.41,.52-.61,.79,.28,.18,.54,.49,.84,.53,2.71,.3,5.42,.56,8.13,.83,.02-.14,.03-.28,.05-.42Zm1.13-15.47c.94-.17,1.14-.79,1.29-1.43,1.03-4.42,2.03-8.85,3.07-13.28,.3-1.26,.63-2.51,1.03-3.74,.9-2.77,1.87-5.52,2.78-8.29,.68-2.07,1.28-4.16,1.99-6.21,.26-.76,.02-1.19-.61-1.46-.84-.35-1.69-.66-2.57-.91-.78-.22-1.27,.07-1.55,.84-.35,.96-.7,1.92-1,2.89-1.21,3.92-2.42,7.83-3.59,11.76-.12,.39-.12,.91,.03,1.28,1.16,2.82,.73,5.55-.37,8.26-.47,1.15-1.01,2.26-1.45,3.42-.54,1.44-1.02,2.89-1.48,4.36-.11,.35-.15,.98,.04,1.12,.73,.54,1.57,.94,2.37,1.4Zm8.8-23.07c0,.6,.67,1.44,1.19,1.46,.78,.03,.68-.62,.82-1.1,.41-1.43,.83-2.85,1.3-4.26,.18-.55,.57-1.02,1.24-.83,.73,.21,.74,.86,.59,1.44-.43,1.65-.89,3.29-1.38,4.92-.18,.59-.07,.98,.5,1.19,.67,.25,1.34,.52,2.04,.67,.26,.05,.72-.15,.86-.37,.38-.63,.69-1.32,.94-2.01,.93-2.59,1.81-5.19,2.72-7.79,.36-1.02,.22-1.26-.86-1.59-1.63-.5-3.25-1.02-4.85-1.59-1.29-.46-1.46-.43-1.94,.88-.82,2.25-1.6,4.51-2.4,6.77-.26,.75-.52,1.51-.76,2.23Zm-15.31,20.02c.15-.16,.52-.39,.68-.72,.34-.69,.62-1.42,.83-2.16,1.07-3.85,2.23-7.67,3.11-11.56,.3-1.35,.51-2.63,1.15-3.91,.81-1.63,1.12-3.5,1.69-5.26,.91-2.8,1.85-5.6,2.81-8.38,.23-.65,.21-1.18-.44-1.46-.73-.32-.98,.28-1.16,.81-.54,1.65-1.06,3.3-1.58,4.95-1.08,3.44-2.17,6.88-3.24,10.32-.88,2.84-1.74,5.69-2.62,8.53-.78,2.5-1.61,4.98-2.39,7.48-.24,.77,.2,1.39,1.16,1.35Zm13.58,3.86c-.06,.86,.28,1.25,.95,1.38,.65,.13,1-.23,1.17-.78,.61-1.91,1.25-3.82,1.77-5.76,1.07-4.01,2.17-8.01,3.78-11.85,.21-.5,.12-.98-.42-1.16-.85-.28-1.6-1.25-2.63-.44-.09,.07-.12,.24-.17,.37-.83,2.27-1.64,4.55-2.51,6.81-.24,.61-.29,1.14,0,1.74,.5,1.06,.59,2.13,.17,3.28-.73,1.96-1.35,3.95-2,5.94-.07,.21-.1,.43-.11,.49Zm-4.89-.95c.12,.15,.31,.65,.59,.7,.38,.07,.91-.09,1.23-.34,.26-.21,.33-.67,.45-1.04,.45-1.45,.92-2.89,1.29-4.35,.2-.78,.17-1.6,.29-2.4,.07-.5,.14-1.02,.34-1.47,.5-1.15,1.16-2.24,1.59-3.42,.69-1.86,1.23-3.77,1.86-5.65,.34-1.01-.31-2.18-1.39-2.26-.31-.02-.77,.27-.94,.55-.23,.38-.24,.89-.37,1.34-1.22,4.32-2.47,8.63-3.66,12.95-.47,1.69-.81,3.42-1.27,5.39Z"/><path class="cls-1" d="M25.77,38.34c.07,4.14,.11,8.28,.24,12.41,.06,1.98,.15,3.96,.81,5.88,.37,1.06-.21,2.17-1.25,2.55-.59,.22-1.23,.33-1.86,.35-.86,.04-1.59-.73-1.77-1.98-.28-1.96-.59-3.94-.65-5.91-.15-4.6-.17-9.21-.24-13.82-.02-1.16,0-2.32-.07-3.47-.02-.35-.24-.69-.36-1.04-.3,.2-.67,.34-.88,.61-.88,1.13-1.7,2.31-2.55,3.46-1.3,1.76-3.12,2.77-5.15,3.4-1.26,.39-2.11-.5-2.94-1.3-.34-.32-.66-.67-1.04-.93-.47-.32-.8-.14-.85,.42-.03,.33,.01,.66,.06,.99,.56,3.63,.92,7.28,.84,10.96-.04,1.95,.21,3.83,.91,5.68,.67,1.77,.16,3.25-1.45,4.19-1.08,.63-2.34,.5-3.43,.04-.41-.17-.75-.97-.8-1.51-.23-2.64-.34-5.28-.5-7.92-.13-2.14-.29-4.29-.39-6.43-.16-3.3-.25-6.61-.42-9.91-.07-1.35-.25-2.69-.42-4.03-.39-3.03,.04-6.06,.04-9.08,0-1.87-.13-3.75-.22-5.62-.01-.24-.1-.49-.19-.72-.67-1.74-.3-3.16,1.15-4.41,.48-.41,.97-.82,1.45-1.23,1.22-1.04,2.81-.83,3.58,.58,.37,.67,.63,1.49,.65,2.26,.1,4.33,.07,8.66,.17,12.99,.04,1.9,.14,3.81,.43,5.69,.17,1.11,.67,2.21,1.21,3.22,.76,1.43,2.63,1.69,3.85,.62,1.19-1.03,2-2.29,2.52-3.81,.79-2.31,1.58-4.64,2.69-6.8,.75-1.46,2.02-2.67,3.12-3.94,.54-.62,1.62-.51,2.07,.28,.46,.78,.91,1.69,.98,2.57,.23,2.83,.33,5.67,.41,8.51,.06,2.07,.01,4.14,.01,6.21h.24Z"/><path class="cls-1" d="M107.14,62c0-2.37,.11-4.75-.02-7.11-.23-4.08,.24-8.14,.02-12.21-.1-1.83-.02-3.62,.31-5.43,.32-1.71,1.65-2.32,2.89-3.04,.2-.11,.82,.09,.91,.3,.25,.57,.48,1.23,.45,1.84-.13,2.34-.4,4.67-.55,7-.08,1.14,.25,1.33,1.24,.81,1.23-.65,2.45-1.2,3.9-1.19,2.37,.01,4.22,1.03,5.62,2.82,.74,.94,1.21,2.08,1.83,3.11,.16,.27,.37,.66,.59,.7,.22,.03,.56-.28,.74-.53,1.63-2.14,3.42-4.12,5.68-5.61,2.05-1.35,4.22-1.12,6.3-.08,1.49,.74,2.45,2.04,3,3.6,.13,.38,.1,.86,.03,1.27-.26,1.63-.63,3.24-.83,4.87-.18,1.45-.2,2.91-.27,4.37-.14,3.23-.22,6.45,1.43,9.42,.36,.65,.07,1.59-.51,2-.67,.47-2.05,.36-2.57-.37-.57-.8-1.15-1.68-1.36-2.6-.37-1.6-.44-3.27-.67-4.91-.05-.38-.25-.73-.39-1.1-.33,.24-.77,.4-.98,.72-1.22,1.85-2.83,3.23-4.8,4.19-1.51,.73-3.94,.14-5.31-1.27-.87-.89-1.63-1.84-1.84-3.15-.12-.75-.66-.88-1.18-.3-1.52,1.7-3.46,2.78-5.53,3.51-2.17,.76-4.49,.87-6.79,.58-.91-.12-1.55-1.16-1.34-2.2Zm29.07-12.71c0-.14,.02-.27,.03-.41,.12-1.78-.3-2.11-2.1-1.91-2.92,.33-5.17,1.87-6.99,4-2.17,2.53-2.9,5.38-1.28,8.55,.85,1.67,2.53,2.19,3.94,.96,1.34-1.16,2.55-2.49,3.7-3.84,1.8-2.1,2.66-4.58,2.7-7.35Zm-25.12,5.28c.05,0,.1,0,.16,0,0,1.51-.01,3.03,0,4.54,.01,.95,.36,1.27,1.23,.98,2.21-.74,4.45-1.45,6.06-3.33,1.21-1.41,1.87-3.04,2.14-4.84,.07-.47-.1-1.07-.36-1.48-1.52-2.41-5.07-3.5-7.68-2.36-.76,.33-1.51,.82-1.54,1.77-.05,1.57-.01,3.14-.01,4.71Z"/><path class="cls-1" d="M146.73,52.25c0,1.54-.02,3.09,0,4.63,.01,.66,0,1.35,.19,1.96,.44,1.39-.04,2.37-1.16,3.12-.55,.37-1.03,1.01-1.83,.64-.81-.37-1.09-1.05-1.2-1.92-.36-2.64-.92-5.26-1.2-7.92-.23-2.2-.7-4.37-.53-6.64,.23-3.07,.04-6.17,.1-9.25,.02-.98,.22-1.95,.35-2.92,.27-2.07,.55-4.15,.81-6.22,.31-2.49,.56-4.98,1.45-7.36,.66-1.76,1.97-2.04,3.38-.8,1.26,1.1,1.48,2.49,1.27,3.98-.43,3.17-.95,6.32-1.42,9.48-.05,.3-.14,.61-.11,.9,.03,.3,.11,.72,.32,.86,.21,.14,.65,.11,.92,0,1.63-.73,3.17-1.68,4.86-2.23,1.89-.61,3.9-1.28,5.9-.59,1.96,.68,3.55,1.9,4.47,3.9,.58,1.26,.66,2.52,.55,3.86-.08,.96,0,1.93,0,2.89,0,.25,.05,.52-.02,.74-.79,2.44-.61,5.06-1.55,7.51-.7,1.83-.87,3.86-1.22,5.81-.32,1.77-.92,3.44-2.03,4.82-.44,.55-1.31,.89-2.04,1.04-.88,.18-1.59-.54-1.47-1.45,.25-1.93,.61-3.85,.99-5.75,.25-1.24,.67-2.45,.94-3.68,.55-2.53,1.14-5.05,1.53-7.6,.18-1.16,.15-2.46-.17-3.58-.56-1.92-2.2-2.51-4.06-2.68-3.09-.28-5.67,.73-7.82,2.95-.52,.54-.73,1.11-.68,1.86,.23,3.22,.44,6.44,.65,9.65-.05,0-.1,0-.15,0Z"/><path class="cls-1" d="M31.53,71.91c.17,1.98,.29,3.96,.54,5.93,.06,.5,.42,1.11,.83,1.4,.99,.7,1.93,.12,1.95-1.08,.01-.63-.01-1.28,.14-1.88,.1-.42,.4-.86,.74-1.14,.59-.48,1.33-.14,1.5,.62,.05,.21,.02,.45,.09,.65,.1,.32,.26,.62,.4,.93,.33-.17,.7-.28,.97-.51,.82-.71,1.54-1.57,2.42-2.2,2-1.45,3.1-1.27,4.65,.64,.52,.64,.96,1.35,1.41,2.04,1.37,2.1,1.34,4.53,1.44,6.88,.1,2.33-.12,4.68-.24,7.03-.04,.88-1.57,1.83-2.61,1.66-1-.16-1.64-1.19-1.33-2.27,.67-2.29,1.12-4.61,.98-7.01-.06-1.01-.15-2.06-.45-3.02-.24-.75-.79-1.43-1.27-2.08-.15-.2-.53-.29-.81-.31-1.1-.08-2.61,.86-3.06,1.88-.35,.78-.73,1.55-1.03,2.34-.98,2.6-.72,5.26-.29,7.91,.22,1.36-.27,2.16-1.52,2.29-1.04,.11-1.89-.78-1.91-2-.04-2.21-.08-4.41-.12-6.62,0-.16,0-.34-.06-.49-.2-.59-.63-.95-1.24-.87-.63,.08-.62,.65-.57,1.11,.18,1.95,.4,3.9,.6,5.84,.01,.14,.05,.27,.06,.41,.04,.76,.07,1.56-.68,2-.82,.48-1.78,.59-2.61,.13-.33-.18-.58-.8-.59-1.23-.05-2.31-.02-4.63,.01-6.94,.02-1.68-.34-2.06-2.03-2-1.3,.04-2.59,.12-3.89,.13-.88,0-1.28,.58-1.57,1.25-.73,1.69-1.46,3.39-2.12,5.11-.38,.99-1.05,1.53-2.07,1.65-.8,.09-2.27-.73-2.58-1.41-.35-.77-.04-1.43,.34-2.1,1.4-2.49,2.8-4.98,4.13-7.51,.88-1.68,1.66-3.42,2.43-5.15,.47-1.06,.87-2.15,1.22-3.25,.81-2.52,1.56-5.06,2.34-7.58,.06-.18,.1-.38,.19-.55,.42-.77,.58-1.85,1.81-1.72,1.21,.13,2.82,1,2.93,2.27,.27,2.93,.56,5.86,.85,8.79-.11,.01-.21,.02-.32,.03Zm-3.63-3.07c-.11,0-.23,0-.34-.01-.16,.39-.35,.77-.48,1.17-.86,2.67-1.71,5.35-2.57,8.02-.22,.69,0,1.09,.72,1.15,.99,.08,1.98,.13,2.97,.15,.94,.02,1.36-.48,1.24-1.42-.08-.66-.2-1.31-.29-1.96-.28-1.99-.54-3.99-.85-5.98-.06-.38-.26-.74-.4-1.12Z"/><path class="cls-1" d="M68.33,51.48c-.08,1.65-.19,3.3-.24,4.96-.03,.85,0,1.71,.07,2.56,.09,1.18-.32,1.76-1.5,1.94-.65,.1-1.32,.19-1.97,.15-1.26-.07-1.58-.65-1.62-1.9-.09-3.3,.63-6.51,.94-9.76,.21-2.14,.16-4.32-.88-6.3-.34-.65-.78-1.26-1.26-1.81-.53-.61-1.2-.45-1.81-.08-1.31,.81-2.34,1.9-3.15,3.21-1.86,3-2.08,6.33-2.01,9.72,.02,.88,.07,1.76,.11,2.65,.02,.61-.21,1.05-.78,1.33-.41,.21-.78,.5-1.17,.77-1.03,.71-2.03,.47-2.47-.69-.27-.71-.49-1.49-.46-2.23,.15-3.99,.42-7.99,.58-11.98,.06-1.51-.02-3.03-.11-4.54-.16-2.7-.43-5.39-.56-8.09-.05-1.12,.05-2.26,.25-3.37,.31-1.73,1.49-2.32,3.13-1.67,1.65,.65,2.04,1.39,1.79,3.13-.45,3.19-.84,6.4-1.26,9.59-.04,.27-.09,.56-.04,.82,.05,.27,.16,.66,.36,.75,.19,.08,.59-.08,.78-.25,.69-.63,1.32-1.34,2.01-1.97,1.56-1.42,3.3-2.35,5.49-1.66,1.68,.53,3.06,1.46,3.8,3.16,.22,.5,.48,.99,.73,1.48,1.3,2.48,1.04,5.2,1.17,7.86,.04,.74,0,1.49,0,2.23,.03,0,.05,0,.08,0Z"/><path class="cls-1" d="M30.95,47.82c.45-4.25,.88-8.5,1.37-12.74,.1-.87,.39-1.82,1.38-2.08,1.04-.27,2.21-.48,2.95,.59,.32,.47,.48,1.18,.43,1.75-.32,3.65-.84,7.29-1.03,10.95-.11,2.21,.2,4.45,.45,6.67,.06,.53,.61,1.01,.94,1.51,.43-.39,.96-.71,1.28-1.17,1.91-2.76,3.21-5.79,3.65-9.12,.2-1.5,.14-3.02,.2-4.54,.01-.3-.08-.64,.02-.9,.15-.39,.35-.86,.67-1.08,1.07-.73,3.6,.64,3.59,1.93-.01,.8-.16,1.59-.2,2.39-.21,4.27-.5,8.53-.56,12.8-.02,1.65,.45,3.31,.77,4.95,.09,.46,.41,.89,.67,1.31,.32,.52,.3,.98-.11,1.43-.81,.89-2.3,.9-3.21,.13-1.02-.86-1.4-1.92-1.33-3.22,.07-1.18,.08-2.37,.08-3.56,0-.27-.2-.53-.3-.8-.25,.14-.53,.24-.75,.42-.21,.17-.38,.41-.5,.66-.96,2.05-2.92,2.75-4.8,3.53-.92,.38-1.94-.03-2.68-.98-1.16-1.5-2.07-3.1-2.2-5.08-.06-.95-.43-1.89-.53-2.84-.1-.96-.02-1.93-.02-2.89-.08,0-.15-.01-.23-.02Z"/><path class="cls-1" d="M64.11,90.69c-.02,2.66-.07,4.89-.96,7.06-1.22,2.97-4.47,6.91-9.03,6.49-1.41-.13-2.59-.69-3.78-1.34-.41-.22-.78-.51-1.16-.78-.61-.44-.66-1.07-.47-1.71,.19-.63,.76-.66,1.3-.59,.35,.05,.72,.13,1.03,.28,2.38,1.21,4.51,.47,6.5-.91,2.3-1.6,2.9-4.13,3.38-6.67,.17-.89,.19-1.81,.18-2.72,0-.36-.26-.73-.41-1.09-.34,.18-.76,.29-.99,.57-1.21,1.45-2.64,2.59-4.45,3.17-1.46,.46-2.91,.59-4.27-.39-.68-.49-1.03-1.12-1.13-1.93-.32-2.5,.22-4.83,1.43-7,.81-1.44,1.71-2.82,2.63-4.19,.41-.61,.93-1.17,1.45-1.69,.7-.69,2.24-.84,3.01-.25,.31,.24,.56,.78,.54,1.17-.02,.34-.38,.81-.71,.96-3.14,1.45-5.53,5.39-5.35,8.85,.01,.22,.01,.48,.12,.64,.23,.34,.49,.83,.82,.91,.34,.08,.92-.15,1.14-.43,.74-.99,1.48-2,2.01-3.11,.76-1.61,1.31-3.32,2-4.98,.23-.55,.54-1.09,.9-1.57,.58-.76,1.47-.74,2.01,.05,.34,.49,.71,1.05,.81,1.62,.59,3.3,1.69,6.54,1.45,9.56Z"/><path class="cls-1" d="M101.4,82.18c.15-2.67,.26-5.59,1.37-8.36,.21-.52,.42-.98,1.05-1.02,.64-.04,1.06,.23,1.4,.81,.5,.88,.39,1.69,.15,2.62-.77,3.04-1.4,6.1-.24,9.19,.4,1.08,.84,2.16,1.91,2.81,.69,.42,1.37,.45,1.86-.18,.76-.96,1.6-1.93,2.08-3.03,.68-1.55,1.19-3.2,1.54-4.85,.27-1.28,.2-2.63,.27-3.94,0-.14,0-.28,0-.41-.02-1.37,.32-1.9,1.25-1.94,.88-.03,1.97,1,2,1.98,.02,.71-.12,1.43-.12,2.15,.03,2.75,.04,5.51,.19,8.25,.03,.61,.47,1.28,.9,1.76,.53,.59,.75,1.14,.4,1.86-.41,.83-.94,1.56-1.97,1.53-.84-.02-1.35-.56-1.55-1.37-.05-.19-.07-.39-.16-.55-.18-.32-.37-.85-.59-.88-.32-.03-.74,.25-1.01,.51-.82,.76-1.56,1.63-2.41,2.37-1.01,.89-3.18,.86-4.37,.17-2.58-1.49-3.54-3.88-3.82-6.66-.08-.85-.08-1.71-.13-2.81Z"/><path class="cls-1" d="M95.45,5.39c-5.63,.12-11.25,.2-16.88,.37-3.47,.1-6.94,.35-10.41,.51-.73,.03-.94,.42-.93,1.07,.02,1.93,.02,3.86,.03,5.79,0,1.11-.29,1.6-.97,1.64-.76,.04-1.44-.59-1.47-1.57-.06-1.87-.05-3.75-.03-5.62,0-.97-.2-1.2-1.16-1.04-1.14,.19-2.28,.43-3.42,.61-.69,.1-1.42,.14-1.79-.65-.3-.63-.01-1.55,.77-1.99,.6-.34,1.33-.61,2.01-.62,2.43-.02,4.85,.1,7.28,.16,1.41,.04,2.81,.08,4.22,.11,2.42,.04,4.85,.09,7.27,.09,1.74,0,3.47-.12,5.21-.14,9.16-.11,18.32-.21,27.48-.3,.64,0,1.42-.14,1.58,.78,.1,.61-.54,.94-1.65,.94-5.71,0-11.42,0-17.13,0,0-.05,0-.09,0-.14Z"/><path class="cls-1" d="M97.49,63.05c1.49,.01,2.91,1.77,2.43,2.87-.68,1.59-.58,3.24-.6,4.88-.02,2.45,.05,4.9,.09,7.35,.04,2.73,.13,5.45,.13,8.18,0,1.69,0,3.34,.5,4.99,.35,1.15-.14,2-1.07,2.27-.87,.25-2.14-.39-2.3-1.41-.32-2.03-.52-4.09-.61-6.15-.15-3.41-.25-6.83-.25-10.25,0-2.56,.19-5.12,.29-7.68,.04-.94-.02-1.88,.1-2.81,.08-.63,.37-1.24,.66-1.81,.13-.24,.5-.35,.63-.43Z"/><path class="cls-1" d="M83.25,10.72c.08-.63,.13-1.26,.25-1.88,.1-.57,.43-.98,1.06-.96,.63,.01,1.04,.37,1.16,.98,.07,.35,.01,.72,.07,1.07,.03,.22,.12,.54,.28,.62,.15,.07,.47-.05,.65-.18,.33-.24,.6-.57,.91-.84,1.06-.9,2.3-1.03,3.43-.22,.72,.52,1.36,1.2,1.93,1.9,.7,.85,1.39,.99,2.23,.29,1.94-1.63,3.24-1.18,3.92,1.31,.16,.59,.54,1.12,.83,1.68,.08,.15,.2,.27,.28,.41,.37,.7,.27,1.62-.21,1.99-.48,.36-1.32,.27-1.88-.34-.48-.52-.87-1.14-1.2-1.77-.34-.64-.81-.84-1.43-.59-2.21,.91-3.53-.21-4.62-1.89-.92-1.42-1.73-1.5-2.83-.19-.42,.51-.81,1.05-1.21,1.57-.44,.57-.96,1.03-1.74,.9-.78-.13-1.27-.62-1.45-1.4-.11-.48-.28-.96-.36-1.44-.06-.32-.01-.66-.01-.99-.02,0-.04,0-.06,0Z"/><path class="cls-1" d="M80.51,17.25c-1.27-.04-2.43-1.18-2.74-2.56-.22-.99-.39-2-.53-3.01-.16-1.15-.26-2.3-.39-3.45-.07-.63-.09-1.25,.66-1.5,.52-.17,1.4,.28,1.63,.88,.19,.51,.3,1.06,.38,1.6,.18,1.2,.33,2.4,.49,3.61,.13,.99,.37,1.92,1.02,2.75,.24,.3,.25,.89,.16,1.29-.05,.21-.56,.32-.68,.39Z"/><path class="cls-1" d="M80.56,3.37c-.72-.29-1.44-.46-2.02-.85-.29-.2-.48-.85-.38-1.21,.08-.29,.64-.61,1.01-.63,1.18-.07,2.37-.04,3.54,.04,.34,.03,.91,.36,.93,.59,.04,.39-.18,1.02-.48,1.17-.79,.39-1.68,.58-2.61,.88Z"/></svg>