<?xml version="1.0" encoding="UTF-8"?><svg id="Layer_1" xmlns="http://www.w3.org/2000/svg" viewBox="0 0 578 167"><defs><style>.cls-1{fill:#313131;}</style></defs><path class="cls-1" d="M549.51,81.74c1.1,1.01,1.73,1.59,2.64,2.42,1.66-3.79,3.19-7.29,4.85-11.09,1.9,1.68,2.94,1.1,4.45-.55,2.93-3.2,6.1-6.37,9.71-8.73,3.75-2.45,6.03-1,5.84,3.46-.16,3.84-1.19,7.65-1.71,11.48-.25,1.85-.23,3.75-.33,5.62,.36,.15,.73,.31,1.09,.46-.9,.51-1.82,.96-2.68,1.53-2.16,1.44-4.09,2.83-3.71,6.1,.11,.97-1.93,2.37-3.2,3.27-1.46,1.03-3.03,1.77-1.29,4.02-.88,.31-1.58,.69-2.32,.81-5.92,.91-9.87,4.51-13.52,9.01-3.51,4.33-7.32,8.59-11.7,11.96-4.41,3.39-9.2,6.68-15.55,5.77-5.98-.86-9.89-4.18-12.15-9.41-2-4.64-3.52-9.5-5.07-14.32-2.6-8.05-11.48-11.12-18.26-5.98-3.95,2.99-7.46,6.56-11.3,9.71-10.66,8.75-22.91,13.29-36.7,13.85-7.25,.29-12.71-5.39-13.76-12.31-1.26-8.28,1.73-15.1,6.89-21.16,5.13-6.02,10.54-11.8,15.75-17.75,1.77-2.02,3.37-4.21,4.93-6.4,1.57-2.21,1.73-4.53,.39-7-1.33-2.46-3-3.04-5.6-2.18-3.35,1.11-6.76,2.25-10.23,2.73-2.68,.37-5.13-.96-7.54-3.88,1.75,.16,2.72,.27,3.7,.34,4.2,.33,8.48,.72,12.01-2.2,.95-.79,1.32-2.29,1.96-3.46-1.21-.52-2.4-1.41-3.64-1.47-3.5-.18-7.02,.14-10.52-.03-3.38-.17-5.16-1.98-5.13-4.64,.02-1.94,.76-2.91,2.78-2.17,1.19,.44,2.3,1.17,3.52,1.47,.89,.22,1.9-.04,2.85-.09-.32-1.15-.28-2.76-1.04-3.35-1.76-1.38-4.04-2.07-5.86-3.39-2.37-1.72-5.31-3.03-4.71-7.07,.49-3.28,2.8-5.09,5.84-3.6,1.4,.69,2.65,1.77,3.81,2.85,2.99,2.78,4.43,2.61,6.4-1.01,1.27-2.35,2.26-4.86,3.67-7.11,1.45-2.32,3.38-4.34,4.85-6.64,.46-.72,.11-1.94,.17-2.93,.1-1.88-.49-4.52,.51-5.44,1.36-1.26,4.11-1.97,5.93-1.52,1.66,.41,2.99,2.57,4.19,4.17,.31,.41-.19,1.89-.75,2.4-3.45,3.15-2.06,6.45-.41,10.39,1.38-1.37,2.51-2.55,3.69-3.67,1.86-1.78,2.45-1.6,3.05,.83,.69,2.74,1.43,5.47,2.22,8.49,2.59-1.56,4.61-2.76,6.62-3.97,.19,.14,.37,.27,.56,.41-.74,1.74-1.43,3.5-2.23,5.22-1.06,2.27-.33,3.19,2.09,3.06,1.28-.07,2.56-.01,4.69-.01-1.15,1.41-1.79,2.29-2.53,3.09-1.73,1.9-3.71,3.63-3.08,6.68,.68,3.3,3.26,4.27,5.94,5.22,1.12,.39,2.2,.89,3.29,1.33-.06,.37-.11,.74-.17,1.11-1.28,.16-2.56,.41-3.85,.47-4.23,.2-7.56,5.51-5.71,9.37,.35,.74,1.37,1.38,2.21,1.62,3.17,.93,4.22,3.22,2.67,6.14-1.68,3.16-1.45,3.49,1.98,3.58,1.43,.04,3.81-1.08,3.88,1.31,.04,1.3-1.57,3.12-2.9,3.9-3.33,1.95-5.9,1.32-8.56-1.53-.47-.5-.81-1.11-1.21-1.67-.28,.1-.56,.21-.83,.31-.04,.78-.2,1.59-.09,2.35,.65,4.41-.01,5.6-3.91,7.97-.8,.49-1.07,1.82-1.62,2.74-.64,1.07-1.32,2.12-2.24,3.58-.72-1.31-1.18-2.14-1.78-3.23-3.59,2.1-6.39,4.86-7.79,8.7-.31,.85,.8,2.72,1.76,3.35,.75,.49,2.66,.18,3.39-.5,1.65-1.55,2.89-3.53,4.28-5.33,6.34,2.89,4.37-4.5,7.5-5.8,.16,.55,.33,1.14,.69,2.42,1.19-1.52,1.99-2.7,2.96-3.72,2.23-2.36,3.63-5.94,7.97-5.35,.68,.09,1.59-1.05,2.29-1.72,1.52-1.45,2.85-3.15,4.51-4.41,1.58-1.2,3.48-2.41,4.84,.56,.22,.49,1.3,.78,2.01,.82,1.8,.12,3.62-.05,5.41,.09,.69,.05,1.92,.62,1.91,.94-.02,2.49,1.77,2.46,3.43,2.9,1.72,.45,3.47,1.03,5,1.91,.75,.43,1.06,1.65,1.52,2.54,.17,.32,.11,.79,.32,1.06,2.13,2.7,4.3,5.37,6.44,8.07,.49,.63,.94,1.3,1.32,2,1.22,2.22,1.11,2.49-1.92,3.91,2.09,1.46,4.05,2.6,5.7,4.09,.88,.79,1.94,2.4,1.68,3.27-.98,3.31,1.86,4.11,3.43,5.58,.29,.27,2.87-.98,3.3-2,.74-1.74,.66-3.6,3.33-3.83,.64-.06,1.37-2.28,1.56-3.59,.32-2.21,1.33-3.64,3.35-4.57,.69-.32,1.17-1.16,1.67-1.82,.94-1.25,1.86-2.52,2.73-3.82,.53-.8,1.05-1.64,1.42-2.52,.6-1.45,1.07-2.95,1.76-4.87Zm8.16,6.5l-.96-.21c-3.61,4.63-7.05,9.4-10.89,13.84-4.1,4.74-8.4,9.35-12.96,13.65-2.77,2.61-6.86,2-8.92-1.15-2.72-4.15-5.17-8.5-7.45-12.91-3.49-6.76-7.02-13.48-12.48-18.89-2.84-2.81-6.62-3.83-10.46-3.47-7.71,.73-13.51,5.56-19.49,9.86-5.91,4.25-11.55,8.91-17.62,12.91-2.06,1.35-5.09,1.58-7.7,1.64-2.94,.07-4.44-2.62-3.44-5.49,.42-1.21,.91-2.52,1.75-3.43,5.94-6.47,12.02-12.81,17.94-19.3,.75-.82,.83-2.26,1.22-3.41-1.6-.39-2.88-.46-4.18,1.13-2.13,2.62-4.71,4.89-7.06,7.34-3.87,4.04-8.02,7.86-11.44,12.26-1.7,2.18-2.95,5.47-2.79,8.17,.29,4.97,5.98,8.3,10.78,6.19,6.24-2.74,12.28-6.08,18-9.79,6.17-4,11.71-8.99,17.85-13.06,3.97-2.64,8.49-3.16,12.99-.45,4.28,2.57,7.05,6.36,9.3,10.66,3.17,6.07,6.17,12.23,9.62,18.13,4.13,7.06,11.42,8.43,17.82,3.43,8.4-6.55,14.45-15.14,19.91-24.15,.57-.95,.45-2.32,.64-3.49Zm-101.52-59.11c-.5,.23-.99,.46-1.49,.7,.41,1.34,.77,2.7,1.23,4.02,1.96,5.55,4.46,11.09-.77,16.37-.33,.33,.19,2.19,.82,2.65,2.5,1.8,5.2,.26,6.22-3.11,1.28-4.24,.61-8.45-.75-12.33-1.06-3.01-3.46-5.55-5.26-8.3Zm-25.42-1l-.81,.53c.53,1.05,.88,2.25,1.61,3.13,3.15,3.79,7.66,4.75,12.19,5.57,.5,.09,1.45-.17,1.54-.47,.18-.55,.07-1.41-.27-1.86-.52-.67-1.33-1.5-2.07-1.57-2.39-.21-5.11,.57-7.15-.3-2.02-.87-3.38-3.29-5.03-5.03Zm122.65,73.27c3.87-1.13,8.82-8.63,8.31-11.84-3.22,3.51-5.96,7.14-8.31,11.84ZM445.73,26.62c-.35,.2-.7,.4-1.05,.59,.67,1.34,1.01,3.29,2.09,3.87,1.51,.81,3.59,.84,5.38,.7,.58-.04,1.03-1.67,1.54-2.57-4.06,2.74-5.82-.62-7.97-2.6Zm1.62,14.58c-1.78,.77-3.41,1.48-5.63,2.44,4.4,1.48,5.96,.78,5.63-2.44Z"/><path class="cls-1" d="M20.7,72.46c1.73,4.23,3.19,7.77,4.81,11.74,.87-.82,1.53-1.44,2.36-2.22,.3,.34,.66,.64,.87,1.03,1.96,3.61,3.88,7.25,5.86,10.85,.22,.41,.68,.84,1.11,.96,2.7,.73,3.33,2.8,3.61,5.22,.19,1.62,.51,3.16,2.75,3.28,.51,.03,1.21,1.19,1.38,1.92,.48,2.18,1.46,3.8,3.87,3.82,1.15,0,3.91-4.1,3.48-5.27-.99-2.71,.95-3.51,2.63-4.6,1.54-1,3.02-2.1,5.06-3.53-3.24-.82-3.37-2.24-1.91-4.07,1.18-1.47,2.41-2.9,3.58-4.38,.41-.52,.69-1.13,1.05-1.69,.64-.99,1.35-1.95,1.93-2.97,.4-.69,.58-1.51,.97-2.21,.39-.72,.76-1.66,1.41-2,1.57-.83,3.27-1.48,4.97-2.01,1.56-.49,3.88,.19,3.53-2.81-.03-.26,1.42-.91,2.23-.99,1.49-.16,3.01-.13,4.51-.02,1.51,.11,2.66,.04,3.36-1.7,.21-.53,2.12-1.02,2.7-.65,1.74,1.11,3.24,2.6,4.76,4.02,1.62,1.51,2.82,3.09,5.62,3.25,1.89,.11,3.74,2.58,5.4,4.2,1.24,1.2,2.15,2.73,3.49,4.49,.39-1.12,.56-1.62,.85-2.46,1.58,2.63,3.03,5.03,4.64,7.7,2.25-2.15,3.56-1.63,4.57,.64,.44,.98,1.31,1.76,2.01,2.61,1.26,1.54,2.81,1.95,4.49,.8,1.71-1.17,2.44-2.89,1.03-4.63-2.18-2.69-4.61-5.17-7.2-8.04-.88,1.34-1.38,2.1-2.41,3.68-1.38-2.44-2.53-4.48-3.56-6.3-5.91-1.41-3.65-6.31-4.22-10.4-1.11,1.02-1.87,1.73-2.66,2.43-2.82,2.5-7.57,2.24-9.93-.71-.58-.73-.89-2.01-.69-2.89,.11-.49,1.52-.79,2.38-.96,.77-.14,1.6,.07,2.4,.04,1.79-.07,2.25-.95,1.56-2.59-2.12-5.07-2-5.27,2.97-7.11,.49-.18,.98-.69,1.22-1.17,2.12-4.15-1-9.45-5.7-9.79-1.28-.09-2.54-.36-3.82-.54-.04-.37-.08-.74-.12-1.11,1.1-.43,2.18-.94,3.31-1.29,7.02-2.16,8.2-6.74,2.96-11.83-.83-.81-1.93-1.33-2.91-1.99,.25-.38,.5-.77,.75-1.15,1.45,0,2.91-.08,4.36,.02,2.53,.18,2.71-1.19,1.99-3.01-.68-1.74-1.57-3.39-2.37-5.08,.17-.23,.35-.46,.52-.7,2.07,1.14,4.15,2.27,6.81,3.73,1-3.57,1.93-6.84,3.06-10.86,1.31,1.29,2.34,2.47,3.55,3.44,.79,.64,1.83,.97,2.76,1.44,.28-.91,.75-1.8,.82-2.73,.2-2.48,.18-4.77-1.7-6.98-.78-.92-.47-3.69,.38-4.87,1.54-2.13,4.13-2.69,6.77-1.86,2.44,.77,4.41,3.4,3.29,5.5-2.3,4.31,.73,6.88,2.71,9.5,1.92,2.54,3.89,4.8,4.97,7.97,1.52,4.47,4.38,4.69,7.72,1.22,1.07-1.11,2.44-2.28,3.86-2.62,2.15-.5,4.11,.71,4.7,2.82,.6,2.14,.46,4.44-1.77,5.98-.95,.66-1.66,1.68-2.64,2.28-1.81,1.12-3.67,2.26-5.64,3.03-1.96,.76-2.14,2.25-1.42,3.55,.31,.56,2.18,.42,3.32,.31,.74-.07,1.39-.86,2.14-.99,1.19-.21,3.03-1.66,3.42,.55,.24,1.38-.39,3.35-1.35,4.37-.86,.92-2.7,1.18-4.13,1.25-3.5,.17-7.03-.03-10.53,.11-.96,.04-2.41,.58-2.69,1.27-.31,.76,.18,2.49,.85,2.87,2.26,1.29,4.68,2.62,7.19,3.1,2.75,.52,5.67,.12,8.36,.12-1.25,2.52-5.38,4.18-9.27,3.21-2.11-.53-4.15-1.37-6.18-2.21-1.93-.79-3.66-2.04-5.66,.11-2.09,2.25-2.67,4.7-1.45,7.39,.86,1.89,1.94,3.77,3.31,5.31,4.19,4.7,8.73,9.09,12.82,13.87,4.53,5.29,9.21,10.51,11.42,17.4,1.76,5.48,1.16,10.7-1.28,15.69-2.04,4.17-5.74,6.21-10.33,6.58-11.47,.91-21.71-3.02-31.16-8.85-4.87-3-8.91-7.32-13.36-11.02-3.52-2.92-6.96-6.07-11.93-6.18-4.93-.11-8.78,2.4-10.66,7.17-2.14,5.45-3.74,11.14-6.24,16.42-3.48,7.36-10.97,10.72-19.4,7.5-6.75-2.58-11.61-7.61-16.36-12.82-3.8-4.17-6.63-9.43-12.35-11.52-2.05-.75-4.17-1.3-6.5-2.01,1.48-2.32-.16-3.26-1.68-4.21-1.79-1.11-4.02-1.7-3-4.85,.27-.82-1.36-2.51-2.42-3.44-1.17-1.03-2.69-1.65-4.4-2.65,3.05-1.98,1.94-4.29,1.33-6.89-.9-3.85-1.34-7.84-1.58-11.8-.17-2.76,1.19-3.64,3.82-2.9,5.23,1.45,8.63,5.24,11.64,9.45,1.16,1.62,2.29,2.69,4.26-.07Zm.23,15.29c-.38,.2-.77,.4-1.15,.6,.44,1.35,.66,2.85,1.38,4.03,2.02,3.32,3.92,6.79,6.45,9.69,4.46,5.1,9.05,10.16,14.15,14.59,4.51,3.92,11.43,2.95,14.83-1.89,3.12-4.43,5.52-9.38,8.15-14.15,2.97-5.38,5.21-11.19,10.19-15.29,4.63-3.81,10.86-4.47,15.47-1.12,6.05,4.4,11.8,9.25,18.1,13.24,5.83,3.7,12.1,6.78,18.4,9.63,3.16,1.43,6.14-.12,8.6-2.66,2.06-2.13,2.12-4.58,1.34-6.95-.7-2.12-1.87-4.26-3.37-5.9-5.03-5.55-10.3-10.88-15.49-16.29-.97-1.01-1.82-2.31-3.01-2.91-1.07-.54-2.53-.3-3.82-.41,.4,1.03,.58,2.23,1.23,3.06,1.29,1.64,2.81,3.1,4.27,4.6,4.11,4.21,8.31,8.33,12.31,12.64,1.33,1.43,2.4,3.22,3.15,5.03,1.59,3.84-.16,6.18-4.22,6.38-5.77,.29-9.6-3.54-13.78-6.43-7.36-5.1-14.33-10.79-21.8-15.72-6.16-4.07-15.4-3.04-19.31,1.77-3.06,3.77-5.9,7.76-8.38,11.92-3.25,5.47-5.78,11.38-9.11,16.8-3.37,5.5-7.22,7.21-12.03,2.16-6.11-6.43-11.84-13.21-17.66-19.91-1.78-2.05-3.3-4.33-4.93-6.5ZM122.77,29.87c-6.35,3.84-9.63,15.24-6.79,21.03,.51,1.05,1.78,2.19,2.85,2.37,1.23,.21,2.74-.43,3.89-1.1,.26-.15-.36-2-.74-3-.28-.73-.85-1.33-1.25-2.01-2.58-4.42-.31-8.45,.98-12.58,.47-1.53,.71-3.13,1.06-4.7Zm9.35,7.15c6.32,1.33,15.85-4.27,14.81-9.28-.92,.71-1.6,1.68-2.19,2.71-1.44,2.5-3.19,3.68-6.34,2.75-3.32-.98-5.32,.45-6.27,3.82ZM23.51,101.19c-.01-2.83-5.31-10.47-7.76-11.2,.65,4.2,4.58,9.86,7.76,11.2ZM132.78,26.54c-1.8,1.39-2.83,2.69-4.12,3.05-1.26,.35-2.79-.27-4.33-.48,.25,3.2,2.3,3.37,4.49,2.97,2.54-.46,3.78-2.11,3.95-5.54Zm3.73,18.29c.09-.32,.18-.65,.26-.97-1.76-.78-3.49-1.63-5.29-2.28-.48-.17-1.18,.31-1.78,.49,.31,.65,.51,1.76,.95,1.87,1.92,.46,3.9,.63,5.86,.9Z"/><path class="cls-1" d="M256.81,123.01h-20.51c.07-.46,.05-.79,.13-.81,4.24-1.14,4.76-4.46,4.78-8.09,.1-14.65,.21-29.31,.3-43.96,0-1.2-.22-2.4-.28-3.6-.11-2.43-.52-4.62-3.47-5.12-2.69-.46-5.96,1.02-6.92,3.53-2.41,6.3-4.72,12.64-6.91,19.02-2.26,6.58-4.3,13.24-6.46,19.86-1.92,5.86-3.8,11.74-5.87,17.54-.42,1.18-1.59,2.08-2.42,3.11-.96-1.02-2.38-1.88-2.82-3.09-3.33-9.16-6.45-18.39-9.66-27.59-2-5.72-4.04-11.43-6.09-17.14-.16-.44-.5-.82-1.14-1.84-1.4,3.66-2.6,6.83-3.81,9.99-4.64,12.17-9.24,24.35-13.98,36.47-.45,1.14-1.79,1.93-2.72,2.88-.79-.92-1.99-1.71-2.31-2.77-3.22-10.55-6.27-21.16-9.44-31.73-2.42-8.08-4.88-16.15-7.5-24.16-.41-1.25-1.57-2.43-2.69-3.2-1.31-.91-2.96-1.33-4.42-2.57h20.42c-.29,.6-.34,.88-.46,.92-4.43,1.36-4.86,2.1-3.61,6.63,3.13,11.37,6.29,22.74,9.4,34.12,.74,2.72,1.3,5.5,1.95,8.25,.42,.05,.84,.09,1.26,.14,6.29-16.72,12.57-33.44,18.86-50.17,.45-.02,.91-.05,1.36-.07,7.42,16.19,12.08,33.47,19.15,49.97,1.81-5.53,3.65-11.06,5.42-16.6,1.86-5.86,3.7-11.72,5.46-17.61,.94-3.13,1.83-6.29,2.47-9.5,.44-2.22,.07-4.27-2.93-4.51-.61-.05-1.19-.55-1.82-.86,1.51-1.9,32.86-1.34,35.07-.32-.05,.18-.08,.49-.17,.51-4.57,.92-5.04,4.19-5.01,8.11,.11,13.96,.04,27.93,.05,41.89,0,1,.02,2.01,.06,3.01,.17,4.28,1.05,8,6.44,8.21,.32,.01,.62,.32,.93,.49-.03,.23-.06,.45-.09,.68Z"/><path class="cls-1" d="M324.73,60.57c1.14-1.54,14.36-1.9,16.89-.35-1.82,2.02-1.44,4.1-.15,6.26,4.63,7.79,9.2,15.62,13.81,23.43,.18,.31,.59,.48,1.21,.97,1.27-2.02,2.5-3.88,3.63-5.8,3.21-5.5,6.29-11.09,9.58-16.54,2.72-4.5,2.83-4.44,.15-8.89h15.72c-.46,.75-.57,1.16-.76,1.21-7.74,2.03-10.77,8.69-14.35,14.74-3.4,5.73-6.76,11.5-9.75,17.45-1.11,2.22-1.5,4.98-1.55,7.51-.1,5.51,.21,11.02,.4,16.53,.09,2.54,1.36,3.83,4,4.36,6.99,1.38,10.93-.53,13.4-7.21,4.31-11.66,8.47-23.37,12.76-35.03,2.37-6.44,4.84-12.84,7.32-19.24,.3-.77,.95-1.4,1.85-2.7,1.03,2.04,1.9,3.45,2.49,4.97,3.95,10.2,7.83,20.43,11.76,30.64,2.6,6.77,5.22,13.54,7.87,20.29,1.89,4.81,3.07,6.02,9.35,9.66h-14.74c-1.11-4.02-1.97-7.72-3.17-11.29-1.13-3.38-2.7-6.6-3.91-9.96-.67-1.85-1.65-2.77-3.71-2.74-4.81,.07-9.63-.13-14.44,.05-1,.04-2.51,1.04-2.85,1.95-2,5.3-3.82,10.68-5.51,16.09-.82,2.64,.16,4.66,3.29,5.33-.1,.24-.21,.47-.31,.71h-38.82l-.67-.69c5.72-.82,5.35-4.79,5.34-8.62-.01-4.31-.05-8.62,.11-12.93,.19-5.25-2.53-9.33-5.08-13.5-3.06-5.01-6.25-9.94-9.15-15.04-2.12-3.73-4.5-6.31-12-11.62Zm80.82,34.17c-2.71-7.52-5.21-14.46-7.71-21.4-.28,0-.55-.02-.83-.02-2.32,6.52-4.67,13.02-6.85,19.58-.12,.36,1.22,1.73,1.91,1.76,4.18,.17,8.38,.08,13.48,.08Z"/><path class="cls-1" d="M334.2,37.9c-3.27,1.75-6.03,3.25-8.82,4.7-.61,.32-1.31,.54-1.99,.66-11.12,1.95-14.34-5.47-12.4-14.42,1.85-8.54,7.13-14.38,14.74-18.11,7.82-3.84,15.9-3.48,23.84-.32,2.62,1.04,4.62,1.22,7.23-.35,5.32-3.2,9.76-2.67,13.04,.24,2.56,2.27,3.38,8.85,1.29,12.52-.36-1.73-.64-3.09-.94-4.45-1.23-5.68-4.26-7.46-9.85-5.78-.57,.17-1.12,.51-1.7,.55-2.14,.14-1.85,1.29-1.22,2.67,.49,1.09,1.09,2.16,1.36,3.31,.83,3.54,.53,6.92-2.83,9.07-2.55,1.64-2.49,3.32-1.17,5.74,2.86,5.25,2.88,10.47-.78,15.47-2.5,3.42-8.5,5.71-12.55,4.73-3.28-.79-4.55-3.07-5.37-9.93-.72,.64-1.29,1.1-1.79,1.62-3.82,4.01-7.82,7.74-13.6,8.66-4.65,.74-8.47-.95-11.48-4.37-1.95-2.22-1.54-5.19,.51-6.99,1.49-1.3,2.97-.99,3.86,.39,.5,.77,.17,2.22-.08,3.29-.21,.88-.86,1.64-1.31,2.46,1,.5,1.96,1.3,3.01,1.45,3.75,.54,7.3,.04,10.42-2.46,3.44-2.75,6.73-5.57,8.57-10.34Zm15.98-23.64c-.18-.26-.26-.5-.41-.58-15.99-7.51-33.26,2.99-36.86,18.93-.98,4.35,3.19,9.22,7.31,8.44,2.4-.46,4.86-.92,7.11-1.84,5.22-2.12,9.73-9.58,9.45-15.16-.17-3.43-1.07-4.19-4.45-3.78-5.02,.59-11.45,6.52-12.29,11.44-.22,1.29-.16,2.63-.26,4.51-2.24-2.69-2.15-5.09-1.07-7.45,2.59-5.7,6.96-9.46,13.02-11.01,4.93-1.26,8.01,1.28,8.08,6.38,.02,1.4,0,2.8,0,4.09,3.42-4.61,6.84-9.21,10.38-13.98Zm.81,29.99c-.24-1.34-.33-2.03-.49-2.7-.98-4.03-3.28-5.03-6.45-2.34-1.91,1.62-3.5,3.87-4.57,6.14-1.44,3.08,.08,5.16,3.45,5.77,4.29,.78,9.29-3.49,9.48-9.25-.47,.79-.78,1.3-1.42,2.38Zm1.2-27.83c-2.38,3.74-4.56,7.14-6.85,10.74,4.66,1.26,6.67,.77,7.98-1.61,1.72-3.11,1.55-6.57-1.13-9.13Zm.16,23.28c.59-4.26-1.55-7.89-4.91-8.35-4.1-.55-6.86,2.25-7.48,7.59,6.15-3.85,9.05-3.67,12.38,.76Z"/><path class="cls-1" d="M264.99,50.15q-5.25,3.93-9.12-3.24c-1.46,1.57-2.74,3.19-4.27,4.52-.81,.71-2.57,1.6-2.98,1.27-.96-.78-2.02-2.34-1.87-3.41,.42-2.88,1.31-5.73,2.29-8.49,.6-1.71,1.71-3.24,2.59-4.85-.34-.22-.68-.45-1.02-.67-2.53,3.59-5.1,7.15-7.58,10.77-.89,1.31-1.5,2.81-2.38,4.13-.53,.8-1.22,1.62-2.04,2.08-.68,.38-1.64,.25-2.48,.35,.01-.94-.24-1.98,.09-2.79,.71-1.75,1.74-3.36,2.59-5.05,1.2-2.38,2.39-4.78,3.49-7.21,.2-.44-.05-1.09-.1-1.65l-.79-.39c-2.74,4.11-5.47,8.22-8.22,12.31-.94,1.41-1.77,2.96-2.98,4.1-.63,.59-1.96,.44-2.98,.62,.04-.89-.2-1.91,.15-2.66,1.43-3.06,3.09-6.02,4.57-9.06,.67-1.37,1.11-2.85,1.66-4.28-.38-.23-.75-.46-1.13-.68-1.2,1.64-2.38,3.3-3.59,4.93-2.65,3.57-5,7.45-8.08,10.61-2.74,2.8-3.22,2.41-4.95-1.29-.16-.34-.42-.64-.64-.95-2.51,1.63-4.92,3.2-7.59,4.93-2.43-5.76-.05-10.16,1.71-14.64,.4-1.01,.99-1.96,1.33-2.99,.82-2.45,2.44-3.2,5.41-2.43-1.98,5.84-6.1,10.78-7.14,17.65,4.19-1.57,5.52-4.71,7.16-7.39,1.76-2.88,2.99-6.08,4.77-8.94,.6-.96,2.19-1.31,3.33-1.94,.37,.34,.74,.67,1.12,1.01-2.5,5.28-4.99,10.55-7.49,15.83,.28,.26,.56,.52,.85,.79,.85-.66,1.91-1.16,2.51-2,3.12-4.36,5.91-8.97,9.21-13.18,3.33-4.25,4.87-3.84,6.91,1.66,1.03-.96,1.87-1.9,2.87-2.61,1.02-.72,2.54-1.95,3.24-1.63,1.08,.49,1.69,2.08,2.39,3.27,.22,.38,.09,.98,.14,1.81,1.55-1.53,2.81-2.97,4.27-4.19,2.1-1.75,3.93-1.21,3.81,1.42-.13,2.86-1.31,5.72-2.31,8.48-.77,2.11-1.98,4.06-2.99,6.08,.18,.22,.37,.45,.55,.67,.64-.27,1.7-.39,1.86-.84,2.59-7.09,7-12.68,13.69-16.21,1.29-.68,3.14-.3,4.74-.37,1.01-.05,2.02-.11,3.02-.02,1.03,.09,2.24,.1,2.98,.66,.34,.26-.04,1.84-.44,2.66-1.69,3.5-3.56,6.91-5.22,10.42-.47,.99-.45,2.21-.77,3.93,1.09-.65,1.74-.82,2.03-1.23,6.33-9.1,12.16-18.51,16.95-28.52,.34-.71,.69-1.76,1.26-1.93,1.25-.38,2.65-.31,3.98-.43-.02,1.08,.3,2.33-.13,3.2-1.85,3.75-3.93,7.38-5.89,11.08-.26,.48-.33,1.06-.68,2.27,1.05-.65,1.62-.91,2.07-1.3,2.01-1.77,3.53-1.31,4.16,1.35,.78,3.35-1.23,5.91-2.52,8.68-.93,2.01-1.76,4.07-2.29,6.32,3.76-.74,4.15-4.95,7.47-6.75-1.5,3.9-3.43,6.77-6.64,8.69-1.75,1.05-3.61,.16-3.61-2.25,0-2.52,.54-5.13,1.34-7.54,.8-2.4,2.21-4.59,3.35-6.87-.24-.19-.48-.38-.72-.57-1.81,2.31-3.73,4.55-5.39,6.96-1.86,2.71-3.33,5.68-5.27,8.32-.68,.93-2.26,1.2-3.42,1.77,.07-1.1,.14-2.21,.2-3.31,.02-.38,.04-.75,.06-1.27q-6.87,6.08-10.47,2.43Zm4.09-12.72c-.22-.59-.31-1.48-.8-1.93-.29-.27-1.41-.09-1.82,.27-3.91,3.42-6.23,7.72-6.71,12.92-.06,.68,.26,1.81,.71,2,.54,.23,1.7-.07,2.11-.56,3.08-3.67,5.79-7.56,6.51-12.7Z"/><path class="cls-1" d="M187.02,33.42c-3.93,3.15-7.34,6.01-10.89,8.69-3.39,2.56-7.15,2.57-10.68,.46-3.19-1.91-4.76-5.08-4.92-8.76-.41-9.9,5.49-16.1,12.87-21.26,8.45-5.91,17.58-5.85,26.84-2.35,2.42,.92,4.3,.58,6.5-.46,6.37-2.98,11.49-1.64,15.29,3.75,2.14,3.04,1.97,6.03-1.22,9.3,.74-5.9-1.11-10.16-6.45-11.14-2.54-.47-5.43,1.02-8.55,1.7,.8,1.31,1.06,2,1.53,2.45,4.99,4.75,2,11.48-3.04,14.24-1.85,1.01-2.34,1.8-2,4.08,.4,2.65-.42,5.49-.79,8.23-.19,1.37-.64,2.7-.83,4.07-.71,5.18-.23,5.91,4.51,7.82-1.35,0-3.16,.55-3.94-.11-1.62-1.38-3.67-3.34-3.8-5.18-.28-4.02,.37-8.14,.94-12.17,.5-3.57-.88-5.43-3.87-4.5-.65,.2-1.25,.84-1.66,1.43-3.38,4.79-6.32,9.95-10.15,14.33-4.47,5.11-10.69,6.82-17.41,6.09-4.92-.53-8.36-5.56-6.59-9.32,1.2-2.55,4.21-3.29,5.82-1.4,1.3,1.53,1.66,2.99-.57,4.1-.59,.3-1.08,.81-2.56,1.93,2.61,.93,4.63,2.36,6.39,2.1,2.71-.41,5.6-1.51,7.8-3.15,5.04-3.74,8.1-9.16,11.44-14.97Zm.97-2.74c.14,.11,.29,.22,.43,.34,3.49-4.72,7.08-9.38,10.45-14.18,2.31-3.29,1.75-4.67-2.22-5.46-13.39-2.66-25.6,4.66-31.79,15.78-1.35,2.43-1.02,6.06-.73,9.06,.27,2.77,4.25,4.81,7.03,3.95,6.93-2.13,11.96-6.61,14.87-13.21,.64-1.44,.58-3.89-.27-5.07-.66-.93-3.09-.99-4.66-.79-4.06,.51-9.01,6.56-9.36,10.95-.09,1.17-.48,2.31-.84,4-.79-.89-1.19-1.13-1.27-1.46-2.07-8.43,7.2-17,13.67-16.52,4.79,.35,7.56,4.16,5.99,8.71-.45,1.3-.87,2.6-1.31,3.9Zm15.32-13.89c-2.58,3.89-5.01,7.56-7.62,11.48,3.06,1.49,5.32,.49,7.2-1.44,2.13-2.19,3.81-6.17,.42-10.05Z"/><path class="cls-1" d="M342.55,122.61c-5.52,1.41-10.86,.78-15.53,.33-1.11-3.79-1.95-7.18-3.1-10.46-1.32-3.74-3-7.35-4.37-11.08-.66-1.8-1.79-2.49-3.59-2.5-4.61-.01-9.23-.22-13.83,0-1.15,.06-2.83,1.2-3.25,2.26-1.91,4.79-3.61,9.68-5.1,14.62-1.23,4.09-.57,5.14,3.15,6.84-5.85,1.42-11.75,.76-17.63,.86-.05-.34-.1-.67-.15-1.01,.55-.26,1.07-.64,1.65-.77,4.16-.94,6.21-3.78,7.62-7.62,3.49-9.51,7.29-18.9,10.84-28.39,2.82-7.53,5.39-15.16,8.21-22.7,.59-1.57,1.77-2.92,2.67-4.38,.9,1.44,2.04,2.77,2.67,4.32,3.77,9.3,7.44,18.64,11.09,27.99,2.31,5.91,4.45,11.89,6.84,17.77,2.37,5.83,4.11,12.27,11.81,13.93Zm-33.37-49.84c-.36,.03-.72,.05-1.09,.08-2.31,7.17-4.61,14.33-7.05,21.9,4.8,0,8.79,.02,12.79,0,2.88-.02,3.16-.69,2.06-3.48-1.17-2.94-2.08-5.99-3.15-8.96-1.15-3.19-2.37-6.35-3.56-9.52Z"/><path class="cls-1" d="M390.16,33.92h5.7c-2.35,5.52-4.54,10.66-6.74,15.8l1.09,.7c.7-.68,1.58-1.24,2.06-2.04,4.13-6.91,8.19-13.86,12.26-20.81,1.36-2.33,2.43-4.87,4.09-6.96,.79-1,2.64-1.15,4.01-1.68,0,1.18,.38,2.55-.07,3.51-2.35,4.94-4.97,9.75-7.34,14.68-.47,.98-.27,2.28-.38,3.44,.92-.66,2-1.19,2.72-2.02,1.24-1.42,2.06-3.25,3.44-4.47,.64-.56,2.56-.5,3.24,.07,.61,.51,.33,2.1,.44,3.21h-3.75c-1.37,2.18-4.09,4.37-2.14,8.23,.6,1.19,.09,2.94,.66,4.97,1.81-2.33,3.63-4.66,5.44-6.99-.58,4.43-3.04,7.51-6.61,9.64-.46,.27-2.26-.58-2.49-1.24-.82-2.36-1.22-4.86-1.95-8-.88-.5-1.96-.02-2.72,1.7-.72,1.65-1.44,3.33-2.42,4.82-.66,1-1.68,2.05-2.75,2.37-.53,.16-1.54-1.26-2.4-2.03-6.39,3.55-6.56,3.48-7.56-3.82-1.51,1.74-2.7,3.41-4.2,4.73-.93,.81-2.81,1.84-3.4,1.45-1.05-.69-1.61-2.32-2.07-3.67-.3-.86-.06-1.9-.06-3.73-1.36,1.82-2.29,3.03-3.18,4.27-2.74,3.8-4.63,3.95-7.64,.26-1.07,.77-2.12,1.64-3.28,2.34-1.54,.92-2.71,.69-3.6-1.12-3.16-6.42,1.59-16.84,8.48-18.06,1.24-.22,2.71,.82,4.23,1.33,1.02-.3,2.34-.7,3.67-1.1,.22,.23,.44,.47,.66,.7-2.26,5.26-4.51,10.52-7.01,16.35,3.86-1.44,11.7-14.12,11.38-16.39,1.53-2.21,2.84-3.89,3.91-5.7,1.06-1.81,2.23-2.43,4.08-1.18-.51,1.68-.99,3.25-1.37,4.48,1.44,.82,2.53,1.43,3.63,2.06-.47,.27-1.01,.82-1.42,.74-3.01-.66-4.3,.81-5.23,3.48-1.04,3-2.64,5.81-3.85,8.76-.49,1.2-.62,2.55-.91,3.83,.33,.14,.66,.29,.98,.43,3.95-5.45,8.37-10.6,10.38-17.3Zm-22.34,1.1c-5.08,2.93-8.56,11.46-6.6,16.17,5.28-1.78,9.95-13.22,6.6-16.17Z"/><path class="cls-1" d="M257.48,143.19c1.18-1.02,2.38-2.01,3.52-3.07,6.03-5.61,8.34-12.9,8.44-20.79,.22-17.86,.05-35.72,.1-53.58,0-2.19-.86-3.33-2.91-3.86-1.28-.33-2.5-.91-3.94-1.45,2.21-1.67,18.18-1.74,20.35-.33-.06,.18-.1,.49-.2,.51-4.5,.96-5.34,4-5.3,8.16,.12,13.54-.05,27.09-.14,40.63-.03,4.21-.01,8.43-.31,12.63-.39,5.51-2.77,10.28-6.81,13.95-3.16,2.87-6.79,5.24-10.27,7.74-.55,.39-1.44,.32-2.17,.46l-.37-1Z"/><path class="cls-1" d="M352.2,132.13c3.45,0,7.46-.23,11.42,.07,3.03,.23,5.08,2.29,6,5.18,.85,2.68-.44,4.85-2.59,6.16-2.54,1.55-2.22,3.05-.76,5.06,1.91,2.62,3.58,5.46,7.36,6.9-.83-6.08,2.98-7.68,7.25-9,.84-.26,2.11-1.38,2.03-1.92-.16-1.01-1.13-2.61-1.82-2.64-.95-.05-2.02,1.06-2.92,1.83-.83,.71-1.46,1.65-2.28,2.37-.07,.06-1.4-.87-1.36-1.26,.12-1.18,.31-2.6,1.04-3.41,2.19-2.42,6.47-3,9.09-1.13,1.06,.76,1.83,2.36,2.07,3.7,.36,2.05-.04,4.23,.23,6.3,.2,1.54,.96,3.01,1.73,5.28-1.54,2.79-2.65,3.06-4.85,1.36-5.5,.25-10.05,.59-14.61,.55-1.02,0-2.26-1.16-3-2.11-1.9-2.44-3.5-5.1-5.37-7.56-.59-.77-1.68-1.17-2.54-1.74-.35,.95-.96,1.89-.99,2.86-.1,2.83-.6,5.85,2.26,8.29h-8.11c2.84-8.45,2.12-16.55,.72-25.13Zm6.76,2.19c-.28,.3-1.64,1.11-1.56,1.74,.34,2.6-1.54,5.55,1.06,7.81,.07,.06,.19,.05,.29,.07,2.18,.38,5.65-2.27,5.92-4.52,.35-2.97-1.66-5.08-5.71-5.1Zm23.76,13.88c-3.52,.47-5.49,2.16-4.84,4.38,.23,.79,1.81,1.74,2.69,1.66,2.55-.21,3.1-1.93,2.15-6.04Z"/><path class="cls-1" d="M437.43,148.65c4.29-8.01,5.16-9.75,.64-16.21h6.84c-1.08,5.93,2.48,10.46,4.74,15.56,1.92-5.08,5.81-9.46,4.4-15.64h4.32c-2.39,7.01-4.79,14.2-7.32,21.35-.52,1.48-1.53,2.78-2.32,4.17-.78-1.28-1.78-2.49-2.3-3.87-1.19-3.22-2.15-6.53-3.21-9.8-.33-.04-.66-.07-1-.11-.99,2.79-1.99,5.58-2.97,8.38-.39,1.13-.64,2.31-1.13,3.39-.33,.73-.95,1.34-1.44,2-.58-.71-1.42-1.33-1.71-2.14-1.44-4.13-2.65-8.33-4.11-12.45-1.28-3.61-2.79-7.13-4.25-10.83h6.12c-.64,5.9,2.58,10.58,4.68,16.21Z"/><path class="cls-1" d="M467.51,147.16c-.52,3.45-1.67,6.9,2.27,9.61-3.8,1.51-7.06,1.4-11.18,.06,3.79-1.72,3.52-4.55,3.53-7.29,.02-3.91,.19-7.83,.06-11.74-.06-1.76-.71-3.51-1.14-5.44h6.88c-.46,3.13-.93,6.37-1.47,10.09,5.4-2.69,8.53-6.96,7.82-10.39h7.52c.11,.23,.22,.46,.33,.69-1,.84-2.04,1.65-3,2.54-2.49,2.3-5.02,4.56-7.33,7.04-.37,.39,.02,2.16,.6,2.67,4.22,3.64,8.57,7.12,12.89,10.64,.3,.25,.68,.41,.9,1.1-3.91,1.65-7.72,1.31-11.56,.39,.48-5.51-4.71-6.68-7.13-9.97Z"/><path class="cls-1" d="M388.67,140.47c1.2-1.52,2.82-3.57,4.41-5.58,.5,.37,.75,.46,.78,.59,1.19,5.16,1.22,4.46,6.7,4.75,2.93,.16,5.97-1.54,8.82,.22,.23,.14,.59,.09,.88,.08,4.25-.2,4.16-.2,4.28,4.11,.11,4.01,.44,8,.7,12.59h-5.42c.29-4.71,.57-9.14,.83-13.45-2.13-.25-3.67-.61-5.19-.53-.78,.04-2.2,.89-2.19,1.33,.13,4.03-1.74,8.41,2.26,12.44-1.65,.27-2.92,.59-4.2,.66-2.17,.13-4.36,.02-6.53,.19-2.77,.22-4.8-1.5-4.85-4.39-.05-2.61,.14-5.22-.03-7.82-.1-1.51-.7-2.99-1.25-5.21Zm10.24,13.74c0-3.28,.25-6.38-.15-9.41-.13-.98-1.98-1.72-3.04-2.58-.55,.91-1.44,1.78-1.58,2.75-.24,1.66-.02,3.39,.01,5.1,.07,4.01,.1,4.04,4.75,4.14Z"/><path class="cls-1" d="M306.56,132.57c.38-.24,1.16-.86,2.03-1.26,2.35-1.08,3.4-.46,3.49,2.12,.09,2.4,.02,4.8,.02,7.85,3.56-2.63,6.61-2.38,9.42,.42,2.91,2.9,2.93,9.6-.02,13.03-3.44,4-8.98,4.99-12.58,2.01-.84-.7-1.37-2.22-1.4-3.38-.12-5.11,.05-10.23-.03-15.35-.02-1.58-.52-3.15-.94-5.44Zm5.55,16.35h.02c0,1.1-.3,2.32,.08,3.28,.46,1.18,1.29,2.62,2.32,3.02,.79,.31,2.44-.53,3.18-1.34,2.16-2.37,1.98-7.6-.37-9.63-.83-.72-2.42-1-3.53-.78-.7,.14-1.36,1.52-1.64,2.46-.28,.92-.06,1.99-.06,2.99Z"/><path class="cls-1" d="M337.11,140.23h3.73c-3.16,7.42-6.09,14.63-9.35,21.69-.73,1.58-2.46,2.87-4.02,3.8-.74,.44-2.45,.04-3.22-.6-.61-.5-.88-2.13-.52-2.88,.34-.7,1.69-1.21,2.63-1.28,3.76-.29,5.45-3.18,3.77-6.54-2.33-4.66-4.59-9.36-7-14.28h5.94c1.23,3.72,2.34,7.04,3.44,10.36,.51,0,1.03,.01,1.54,.02,1-3.37,2-6.73,3.06-10.28Z"/><path class="cls-1" d="M393.68,29.84c1.32-1.3,2.19-2.15,3.07-3.01,.54,.84,1.64,1.79,1.5,2.5-.2,1.04-1.28,1.91-1.98,2.86-.68-.62-1.37-1.24-2.58-2.35Z"/><path class="cls-1" d="M415.64,132.96c-1.54,1.06-2.31,2-3.03,1.97-.7-.04-1.95-1.2-1.86-1.67,.15-.85,1-1.95,1.79-2.19,.57-.18,1.51,.87,3.1,1.9Z"/></svg>