<?xml version="1.0" encoding="UTF-8"?><svg id="Layer_1" xmlns="http://www.w3.org/2000/svg" viewBox="0 0 841.89 841.89"><defs><style>.cls-1{fill:none;stroke:#fff;stroke-linejoin:bevel;stroke-width:35px;}.cls-1,.cls-2{fill-rule:evenodd;}.cls-2{fill:#fff;}.cls-3{fill:#be2026;}</style></defs><path class="cls-3" d="M155.42,0H686.47c85.78,0,155.42,69.64,155.42,155.42V686.47c0,85.78-69.64,155.42-155.42,155.42H155.42C69.64,841.89,0,772.25,0,686.47V155.42C0,69.64,69.64,0,155.42,0Z"/><g><path class="cls-2" d="M176.31,650.83v-67.77h20.92c20,0,30.04,11.29,30.09,33.86-.05,22.56-10.09,33.86-30.09,33.91h-20.92Zm20.92,22.49c35.09,0,52.62-18.79,52.62-56.4s-17.53-56.47-52.62-56.47h-43.49v112.87h43.49Zm63.76-112.87h22.49v112.87h-22.49v-112.87h0Zm125.11,112.87h-90.34l.08-12.93,52.57-78.82h-52.57l-.08-21.07h90.34v13.7l-52.81,78.07h52.81v21.05h0Zm12.16,0v-112.74l82.87-.08v21.07h-60.3v24.05h45.18v21h-45.18v25.64h60.15v21.05h-82.71Zm92.19-112.82v21.07h32.2v91.75h22.54v-91.75h32.2v-21.07h-86.93Zm141.3,112.82c-16.05,0-29.47-5.4-40.23-16.2-10.78-10.81-16.17-24.21-16.17-40.2s5.4-29.46,16.17-40.25c10.76-10.77,24.18-16.17,40.23-16.17s29.44,5.39,40.22,16.17c10.78,10.78,16.17,24.21,16.17,40.25s-5.39,29.45-16.17,40.23c-10.78,10.78-24.18,16.17-40.22,16.17h0Zm.08-21.05c9.99,0,18.1-3.39,24.36-10.16,6.26-6.78,9.39-15.17,9.39-25.18s-3.12-18.44-9.39-25.21c-6.26-6.76-14.43-10.14-24.52-10.14s-18.1,3.38-24.36,10.14c-6.27,6.77-9.4,15.17-9.4,25.21s3.13,18.41,9.4,25.18c6.26,6.78,14.43,10.16,24.51,10.16Z"/><g><polygon class="cls-1" points="231.92 494.88 609.97 494.88 420.94 168.57 231.92 494.88"/><polyline class="cls-1" points="240.27 494.88 526.81 349.18 312.79 349.7"/></g></g></svg>